<svg width="46" height="46" viewBox="0 0 46 46" fill="none" xmlns="http://www.w3.org/2000/svg">
<path d="M7.8916 45.8828H37.5059C42.6328 45.8828 45.1719 43.3438 45.1719 38.3145V8.50488C45.1719 3.47559 42.6328 0.936523 37.5059 0.936523H7.8916C2.78906 0.936523 0.225586 3.45117 0.225586 8.50488V38.3145C0.225586 43.3682 2.78906 45.8828 7.8916 45.8828ZM7.94043 41.9521C5.49902 41.9521 4.15625 40.6582 4.15625 38.1191V8.7002C4.15625 6.16113 5.49902 4.86719 7.94043 4.86719H37.457C39.874 4.86719 41.2412 6.16113 41.2412 8.7002V38.1191C41.2412 40.6582 39.874 41.9521 37.457 41.9521H7.94043ZM27.5449 35.458C28.3018 34.7012 28.2773 33.5293 27.5693 32.8457L17.5352 23.373L27.5693 13.9492C28.3018 13.2656 28.2773 12.0449 27.5205 11.3369C26.8369 10.6777 25.7139 10.7021 24.957 11.4102L14.8008 21.0049C13.4092 22.2744 13.4092 24.5205 14.8008 25.79L24.957 35.3848C25.6406 36.0195 26.9102 36.0684 27.5449 35.458Z" fill="white" style="mix-blend-mode:lighten"/>
</svg>
