<svg width="37" height="31" viewBox="0 0 37 31" fill="none" xmlns="http://www.w3.org/2000/svg">
<path d="M5.32477 27.3276H20.5738C20.149 26.5952 19.8267 25.8042 19.6216 24.9692H5.10504C3.80133 24.9692 3.08356 24.2808 3.08356 22.9185V9.10498C3.08356 7.75732 3.80133 7.0542 5.10504 7.0542H25.525C26.8287 7.0542 27.5611 7.75732 27.5611 9.10498V13.2651C27.9859 13.2212 28.3668 13.1919 28.7623 13.1919C29.1431 13.1919 29.5386 13.2212 29.9195 13.2651V4.90088C29.9195 1.8833 28.3961 0.359863 25.3345 0.359863H5.32477C2.26324 0.359863 0.725159 1.86865 0.725159 4.90088V22.7866C0.725159 25.8188 2.26324 27.3276 5.32477 27.3276ZM12.4586 12.313H13.3228C13.8355 12.313 14.0113 12.1665 14.0113 11.6538V10.7896C14.0113 10.2769 13.8355 10.1157 13.3228 10.1157H12.4586C11.9459 10.1157 11.7701 10.2769 11.7701 10.7896V11.6538C11.7701 12.1665 11.9459 12.313 12.4586 12.313ZM17.3365 12.313H18.1861C18.6988 12.313 18.8746 12.1665 18.8746 11.6538V10.7896C18.8746 10.2769 18.6988 10.1157 18.1861 10.1157H17.3365C16.8091 10.1157 16.648 10.2769 16.648 10.7896V11.6538C16.648 12.1665 16.8091 12.313 17.3365 12.313ZM22.1998 12.313H23.064C23.5767 12.313 23.7379 12.1665 23.7379 11.6538V10.7896C23.7379 10.2769 23.5767 10.1157 23.064 10.1157H22.1998C21.6871 10.1157 21.5113 10.2769 21.5113 10.7896V11.6538C21.5113 12.1665 21.6871 12.313 22.1998 12.313ZM7.59528 17.103H8.45953C8.97223 17.103 9.13336 16.9565 9.13336 16.4438V15.5796C9.13336 15.0669 8.97223 14.9204 8.45953 14.9204H7.59528C7.08258 14.9204 6.9068 15.0669 6.9068 15.5796V16.4438C6.9068 16.9565 7.08258 17.103 7.59528 17.103ZM12.4586 17.103H13.3228C13.8355 17.103 14.0113 16.9565 14.0113 16.4438V15.5796C14.0113 15.0669 13.8355 14.9204 13.3228 14.9204H12.4586C11.9459 14.9204 11.7701 15.0669 11.7701 15.5796V16.4438C11.7701 16.9565 11.9459 17.103 12.4586 17.103ZM17.3365 17.103H18.1861C18.6988 17.103 18.8746 16.9565 18.8746 16.4438V15.5796C18.8746 15.0669 18.6988 14.9204 18.1861 14.9204H17.3365C16.8091 14.9204 16.648 15.0669 16.648 15.5796V16.4438C16.648 16.9565 16.8091 17.103 17.3365 17.103ZM28.7623 30.0815C32.7906 30.0815 36.2037 26.7124 36.2037 22.6401C36.2037 18.5532 32.8345 15.1987 28.7623 15.1987C24.6754 15.1987 21.3209 18.5679 21.3209 22.6401C21.3209 26.7417 24.6754 30.0815 28.7623 30.0815ZM28.7623 27.2983C28.2203 27.2983 27.8687 26.9468 27.8687 26.4048V23.5337H24.9976C24.4703 23.5337 24.1041 23.1821 24.1041 22.6401C24.1041 22.0981 24.4703 21.7466 24.9976 21.7466H27.8687V18.8755C27.8687 18.3481 28.2203 17.9819 28.7623 17.9819C29.3043 17.9819 29.6558 18.3481 29.6558 18.8755V21.7466H32.5123C33.0543 21.7466 33.4205 22.0981 33.4205 22.6401C33.4205 23.1821 33.0543 23.5337 32.5123 23.5337H29.6558V26.4048C29.6558 26.9468 29.3043 27.2983 28.7623 27.2983ZM7.59528 21.9077H8.45953C8.97223 21.9077 9.13336 21.7466 9.13336 21.2339V20.3696C9.13336 19.8569 8.97223 19.7104 8.45953 19.7104H7.59528C7.08258 19.7104 6.9068 19.8569 6.9068 20.3696V21.2339C6.9068 21.7466 7.08258 21.9077 7.59528 21.9077ZM12.4586 21.9077H13.3228C13.8355 21.9077 14.0113 21.7466 14.0113 21.2339V20.3696C14.0113 19.8569 13.8355 19.7104 13.3228 19.7104H12.4586C11.9459 19.7104 11.7701 19.8569 11.7701 20.3696V21.2339C11.7701 21.7466 11.9459 21.9077 12.4586 21.9077ZM17.3365 21.9077H18.1861C18.6988 21.9077 18.8746 21.7466 18.8746 21.2339V20.3696C18.8746 19.8569 18.6988 19.7104 18.1861 19.7104H17.3365C16.8091 19.7104 16.648 19.8569 16.648 20.3696V21.2339C16.648 21.7466 16.8091 21.9077 17.3365 21.9077Z" fill="white"/>
</svg>
