<svg width="22" height="21" viewBox="0 0 22 21" fill="none" xmlns="http://www.w3.org/2000/svg">
<path d="M3.6123 20.1484H18.2861C20.5312 20.1484 21.6484 19.0312 21.6484 16.8184V3.70215C21.6484 1.48926 20.5312 0.37207 18.2861 0.37207H3.6123C1.36719 0.37207 0.239258 1.47852 0.239258 3.70215V16.8184C0.239258 19.042 1.36719 20.1484 3.6123 20.1484ZM3.45117 18.4189C2.49512 18.4189 1.96875 17.9141 1.96875 16.915V6.78516C1.96875 5.79688 2.49512 5.28125 3.45117 5.28125H18.4258C19.3818 5.28125 19.9189 5.79688 19.9189 6.78516V16.915C19.9189 17.9141 19.3818 18.4189 18.4258 18.4189H3.45117ZM8.85449 9.1377H9.48828C9.86426 9.1377 9.98242 9.03027 9.98242 8.6543V8.02051C9.98242 7.64453 9.86426 7.52637 9.48828 7.52637H8.85449C8.47852 7.52637 8.34961 7.64453 8.34961 8.02051V8.6543C8.34961 9.03027 8.47852 9.1377 8.85449 9.1377ZM12.4209 9.1377H13.0547C13.4307 9.1377 13.5596 9.03027 13.5596 8.6543V8.02051C13.5596 7.64453 13.4307 7.52637 13.0547 7.52637H12.4209C12.0449 7.52637 11.916 7.64453 11.916 8.02051V8.6543C11.916 9.03027 12.0449 9.1377 12.4209 9.1377ZM15.9873 9.1377H16.6211C16.9971 9.1377 17.126 9.03027 17.126 8.6543V8.02051C17.126 7.64453 16.9971 7.52637 16.6211 7.52637H15.9873C15.6113 7.52637 15.4932 7.64453 15.4932 8.02051V8.6543C15.4932 9.03027 15.6113 9.1377 15.9873 9.1377ZM5.28809 12.6504H5.91113C6.29785 12.6504 6.41602 12.543 6.41602 12.167V11.5332C6.41602 11.1572 6.29785 11.0498 5.91113 11.0498H5.28809C4.90137 11.0498 4.7832 11.1572 4.7832 11.5332V12.167C4.7832 12.543 4.90137 12.6504 5.28809 12.6504ZM8.85449 12.6504H9.48828C9.86426 12.6504 9.98242 12.543 9.98242 12.167V11.5332C9.98242 11.1572 9.86426 11.0498 9.48828 11.0498H8.85449C8.47852 11.0498 8.34961 11.1572 8.34961 11.5332V12.167C8.34961 12.543 8.47852 12.6504 8.85449 12.6504ZM12.4209 12.6504H13.0547C13.4307 12.6504 13.5596 12.543 13.5596 12.167V11.5332C13.5596 11.1572 13.4307 11.0498 13.0547 11.0498H12.4209C12.0449 11.0498 11.916 11.1572 11.916 11.5332V12.167C11.916 12.543 12.0449 12.6504 12.4209 12.6504ZM15.9873 12.6504H16.6211C16.9971 12.6504 17.126 12.543 17.126 12.167V11.5332C17.126 11.1572 16.9971 11.0498 16.6211 11.0498H15.9873C15.6113 11.0498 15.4932 11.1572 15.4932 11.5332V12.167C15.4932 12.543 15.6113 12.6504 15.9873 12.6504ZM5.28809 16.1738H5.91113C6.29785 16.1738 6.41602 16.0557 6.41602 15.6797V15.0459C6.41602 14.6699 6.29785 14.5625 5.91113 14.5625H5.28809C4.90137 14.5625 4.7832 14.6699 4.7832 15.0459V15.6797C4.7832 16.0557 4.90137 16.1738 5.28809 16.1738ZM8.85449 16.1738H9.48828C9.86426 16.1738 9.98242 16.0557 9.98242 15.6797V15.0459C9.98242 14.6699 9.86426 14.5625 9.48828 14.5625H8.85449C8.47852 14.5625 8.34961 14.6699 8.34961 15.0459V15.6797C8.34961 16.0557 8.47852 16.1738 8.85449 16.1738ZM12.4209 16.1738H13.0547C13.4307 16.1738 13.5596 16.0557 13.5596 15.6797V15.0459C13.5596 14.6699 13.4307 14.5625 13.0547 14.5625H12.4209C12.0449 14.5625 11.916 14.6699 11.916 15.0459V15.6797C11.916 16.0557 12.0449 16.1738 12.4209 16.1738Z" fill="#3D3D3D"/>
</svg>
