<svg width="29" height="20" viewBox="0 0 29 20" fill="none" xmlns="http://www.w3.org/2000/svg">
<path d="M22.8262 13.5205C26.1777 12.9297 28.1758 10.2012 28.1758 8.43945C28.1758 8.02051 27.9932 7.71973 27.6494 7.71973C27.123 7.71973 26.3389 8.40723 24.8564 8.40723C22.2354 8.40723 20.5811 6.81738 20.5811 4.42188C20.5811 2.99316 21.333 1.96191 21.333 1.39258C21.333 1.05957 21.1074 0.833984 20.6777 0.844727C18.6904 0.930664 16.1768 3.1543 15.6074 6.01172C15.9404 6.32324 16.2627 6.74219 16.5312 7.30078C20.1406 7.58008 22.7617 10.3086 22.8262 13.5205ZM4.54297 19.0098H16.166C19.2168 19.0098 21.5801 16.7002 21.5801 13.7246C21.5801 10.7705 19.1738 8.53613 15.9619 8.51465C14.7051 6.1084 12.46 4.71191 9.87109 4.71191C6.36914 4.71191 3.41504 7.42969 3.08203 10.9639C1.25586 11.5117 0.0849609 13.0586 0.0849609 14.9492C0.0849609 17.3555 1.90039 19.0098 4.54297 19.0098Z" fill="#3D3D3D"/>
</svg>
