<svg width="24" height="26" viewBox="0 0 24 26" fill="none" xmlns="http://www.w3.org/2000/svg">
<path d="M11.0991 1.01391C9.35779 1.17818 8.0342 1.54897 6.58859 2.27648C4.683 3.22927 2.91822 4.84855 1.75891 6.7072C0.918765 8.04955 0.308602 9.78148 0.0598429 11.5181C-0.0199476 12.0719 -0.0199476 13.9212 0.0598429 14.475C0.256972 15.8596 0.62307 17.0706 1.19568 18.2299C1.8387 19.5441 2.47233 20.4265 3.5143 21.4731C4.55158 22.5057 5.44805 23.1487 6.71062 23.7683C7.59301 24.2001 8.16093 24.4113 9.0574 24.6366C11.4042 25.228 13.7603 25.1153 16.0508 24.3034C16.7501 24.0546 17.9611 23.4491 18.5853 23.0314C20.2985 21.8909 21.7159 20.3185 22.65 18.5115C23.4995 16.8781 23.9219 15.2542 23.9923 13.3955C24.0627 11.3961 23.6497 9.49048 22.7579 7.69754C22.1759 6.52415 21.5235 5.59952 20.6083 4.65611C19.5944 3.60475 18.5994 2.88194 17.2711 2.22485C15.8818 1.53959 14.5864 1.16879 13.0469 1.02799C12.5682 0.985746 11.484 0.976358 11.0991 1.01391ZM15.1731 7.63183L15.1825 8.80991L14.3283 8.82869C13.0282 8.85215 13.0235 8.85685 13.0235 10.157V10.9783H14.1264C14.7319 10.9783 15.2294 10.983 15.2294 10.9924C15.2294 11.0018 15.1778 11.5087 15.1121 12.1236C15.0464 12.7384 14.9948 13.2829 14.9948 13.3298C14.9948 13.4143 14.9478 13.419 14.0091 13.419H13.0235V16.8922V20.3655H11.5685H10.1135V16.8922V13.419H9.43288H8.75232V12.1987V10.9783H9.42819H10.1041L10.1275 9.88474C10.151 8.65033 10.1979 8.38749 10.5124 7.7961C10.8973 7.05921 11.606 6.59455 12.5166 6.47721C12.6761 6.45374 13.3426 6.43966 13.9856 6.44436L15.159 6.44905L15.1731 7.63183Z" fill="#3D3D3D"/>
</svg>
