<svg width="31" height="31" viewBox="0 0 31 31" fill="none" xmlns="http://www.w3.org/2000/svg">
<path d="M14.409 0.0294094C12.2324 0.234753 10.5779 0.698242 8.77089 1.60762C6.38891 2.79861 4.18293 4.82271 2.7338 7.14602C1.68361 8.82397 0.920908 10.9889 0.60996 13.1596C0.510222 13.8519 0.510222 16.1635 0.60996 16.8558C0.856372 18.5866 1.31399 20.1002 2.02976 21.5494C2.83353 23.1921 3.62557 24.2951 4.92804 25.6034C6.22463 26.8942 7.34522 27.6979 8.92343 28.4724C10.0264 29.0121 10.7363 29.2762 11.8569 29.5578C14.7904 30.297 17.7356 30.1562 20.5987 29.1412C21.4728 28.8303 22.9865 28.0734 23.7668 27.5513C25.9083 26.1256 27.6801 24.1602 28.8476 21.9014C29.9095 19.8597 30.4375 17.8297 30.5255 15.5064C30.6135 13.0071 30.0973 10.6251 28.9825 8.38395C28.255 6.91721 27.4395 5.76142 26.2955 4.58216C25.0282 3.26797 23.7844 2.36446 22.1241 1.54308C20.3875 0.686508 18.7682 0.223019 16.8438 0.0470104C16.2454 -0.00579262 14.8901 -0.0175266 14.409 0.0294094ZM19.5015 8.30181L19.5133 9.77441L18.4455 9.79788C16.8203 9.82722 16.8145 9.83308 16.8145 11.4582V12.4849H18.1932C18.95 12.4849 19.5719 12.4908 19.5719 12.5025C19.5719 12.5143 19.5074 13.1479 19.4253 13.9165C19.3431 14.6851 19.2786 15.3656 19.2786 15.4243C19.2786 15.5299 19.2199 15.5358 18.0465 15.5358H16.8145V19.8773V24.2188H14.9957H13.177V19.8773V15.5358H12.3263H11.4756V14.0104V12.4849H12.3204H13.1652L13.1946 11.1179C13.2239 9.57494 13.2826 9.24639 13.6757 8.50715C14.1567 7.58604 15.0427 7.00521 16.1808 6.85854C16.3803 6.8292 17.2134 6.8116 18.0172 6.81747L19.4839 6.82334L19.5015 8.30181Z" fill="white"/>
</svg>
