<svg width="18" height="24" viewBox="0 0 18 24" fill="none" xmlns="http://www.w3.org/2000/svg">
<path d="M0.25293 15.8105C0.25293 20.5479 3.35742 23.3516 7.62207 23.3516C11.0381 23.3516 13.1543 21.9229 14.5615 19.0547C15.3887 17.4648 16.0225 15.5527 16.6992 13.3398C16.9785 12.4375 17.376 11.2881 17.376 10.7725C17.376 10.1924 16.957 9.80566 16.3447 9.80566C15.668 9.80566 15.2598 10.2354 14.7656 11.2559L13.2725 14.3926C13.1221 14.7363 12.9502 14.8652 12.7783 14.8652C12.5527 14.8652 12.4023 14.7363 12.4023 14.3604V3.0918C12.4023 2.45801 11.8867 1.94238 11.2529 1.94238C10.6191 1.94238 10.1035 2.45801 10.1035 3.0918V11.1484C9.81348 11.041 9.49121 10.9551 9.14746 10.8906V1.54492C9.14746 0.911133 8.63184 0.384766 7.99805 0.384766C7.36426 0.384766 6.83789 0.911133 6.83789 1.54492V10.7725C6.50488 10.7939 6.16113 10.8477 5.82812 10.9014V2.45801C5.82812 1.82422 5.3125 1.30859 4.67871 1.30859C4.04492 1.30859 3.5293 1.82422 3.5293 2.45801V11.6318C3.1748 11.8037 2.85254 11.9863 2.5625 12.1797V5.79883C2.5625 5.16504 2.04688 4.64941 1.41309 4.64941C0.779297 4.64941 0.25293 5.16504 0.25293 5.79883V15.8105Z" fill="#3D3D3D"/>
</svg>
