<svg width="23" height="23" viewBox="0 0 23 23" fill="none" xmlns="http://www.w3.org/2000/svg">
<path d="M11.8799 22.2012C17.874 22.2012 22.8369 17.2275 22.8369 11.2441C22.8369 5.25 17.8633 0.287109 11.8691 0.287109C5.88574 0.287109 0.922852 5.25 0.922852 11.2441C0.922852 17.2275 5.89648 22.2012 11.8799 22.2012ZM11.8799 20.375C6.80957 20.375 2.75977 16.3145 2.75977 11.2441C2.75977 6.17383 6.79883 2.11328 11.8691 2.11328C16.9395 2.11328 21.0107 6.17383 21.0107 11.2441C21.0107 16.3145 16.9502 20.375 11.8799 20.375ZM7.78711 17.0234C8.07715 17.0234 8.27051 16.7979 8.27051 16.5293V13.3604C8.47461 13.2744 8.89355 13.1455 9.55957 13.1455C11.4717 13.1455 12.6748 14.0908 14.5332 14.0908C15.3496 14.0908 15.6826 14.0049 16.0908 13.8115C16.542 13.6074 16.7461 13.2959 16.7461 12.8125V7.5166C16.7461 7.20508 16.585 6.97949 16.1445 6.97949C15.833 6.97949 15.3604 7.20508 14.4795 7.20508C12.6533 7.20508 11.4395 6.24902 9.50586 6.24902C8.66797 6.24902 8.33496 6.3457 7.94824 6.51758C7.50781 6.71094 7.28223 7.05469 7.28223 7.5166V16.5293C7.28223 16.7871 7.51855 17.0234 7.78711 17.0234Z" fill="#3D3D3D"/>
</svg>
