<svg width="24" height="24" viewBox="0 0 24 24" fill="none" xmlns="http://www.w3.org/2000/svg">
<path d="M10.8595 0.0387974C7.10478 0.428354 3.81468 2.47 1.81527 5.65215C-1.01957 10.1579 -0.489211 16.1138 3.09189 20.0376C5.07721 22.2106 7.55535 23.5107 10.531 23.9331C11.0848 24.0129 12.9293 24.0082 13.5113 23.9331C16.2288 23.5576 18.66 22.3514 20.5093 20.4647C21.1194 19.8451 21.2461 19.6996 21.6498 19.1646C22.8513 17.5641 23.6351 15.6116 23.9402 13.4808C24.0199 12.927 24.0199 11.0778 23.9402 10.5239C23.7383 9.10184 23.3676 7.89093 22.7809 6.70349C22.152 5.44564 21.5136 4.5492 20.5139 3.54011C18.66 1.66273 16.3415 0.494062 13.6756 0.0998116C13.0983 0.0153313 11.4321 -0.0222168 10.8595 0.0387974ZM14.8396 5.14996C16.1913 5.23913 16.9798 5.53482 17.7026 6.22006C18.4348 6.91939 18.7727 7.77829 18.8619 9.17224C18.9229 10.0875 18.9229 13.8938 18.8619 14.8231C18.7727 16.2312 18.4254 17.0995 17.6744 17.8082C16.9751 18.4699 16.1678 18.7703 14.8396 18.8548C13.9384 18.9111 10.0804 18.9111 9.17928 18.8548C7.82757 18.7656 7.03907 18.4699 6.31628 17.7847C5.5841 17.0854 5.24618 16.2265 5.157 14.8325C5.09599 13.922 5.10068 10.0077 5.157 9.14408C5.25087 7.7689 5.5888 6.91469 6.31628 6.22006C7.01091 5.56298 7.84165 5.23444 9.04786 5.15465C9.84106 5.09833 14.0276 5.09833 14.8396 5.14996Z" fill="#3D3D3D"/>
<path d="M10.2963 6.37495C8.88829 6.40311 8.65831 6.41719 8.34385 6.50167C7.34415 6.77389 6.77624 7.3371 6.50871 8.3368C6.42423 8.65127 6.41015 8.88594 6.38199 10.3503C6.36791 11.2561 6.36791 12.7486 6.38199 13.6592C6.41015 15.1188 6.42423 15.3535 6.50871 15.668C6.77624 16.6677 7.34415 17.2356 8.34385 17.5031C8.65831 17.5876 8.89298 17.6017 10.3573 17.6298C11.2632 17.6439 12.7557 17.6439 13.6662 17.6298C15.1353 17.6017 15.3605 17.5876 15.6844 17.4984C16.6559 17.2403 17.2473 16.6536 17.5101 15.6773C17.5946 15.3488 17.6087 15.1329 17.6369 13.6545C17.6509 12.7486 17.6509 11.2561 17.6369 10.3456C17.6087 8.88124 17.5946 8.65127 17.5101 8.3368C17.2426 7.3371 16.67 6.7645 15.675 6.50167C15.3089 6.4078 15.215 6.40311 12.5726 6.35617C12.1972 6.35148 11.174 6.36087 10.2963 6.37495ZM15.9848 7.54831C16.1631 7.61401 16.3743 7.81583 16.4494 7.99888C16.6794 8.52924 16.2711 9.13938 15.6938 9.13938C15.2526 9.13938 14.8724 8.76391 14.8724 8.32272C14.8724 7.75482 15.4544 7.34649 15.9848 7.54831ZM13.1499 8.65596C13.7178 8.85308 14.0323 9.0549 14.4782 9.49139C14.91 9.91849 15.1775 10.3409 15.3746 10.8994C15.4967 11.2467 15.506 11.3265 15.506 12.0024C15.506 12.6782 15.4967 12.758 15.3746 13.1053C15.1869 13.6451 14.9053 14.0863 14.5016 14.4946C14.0933 14.8982 13.6521 15.1798 13.1124 15.3676C12.7651 15.4896 12.6853 15.499 12.0094 15.499C11.3336 15.499 11.2538 15.4896 10.9065 15.3676C10.3479 15.1705 9.92554 14.9029 9.49844 14.4711C9.06195 14.0253 8.86482 13.7108 8.65831 13.1429C8.51751 12.7439 8.51281 12.7017 8.51281 12.0024C8.51751 11.3406 8.52689 11.242 8.64423 10.8994C8.88829 10.1719 9.40926 9.4867 10.0382 9.06898C10.7234 8.61372 11.2162 8.47761 12.1033 8.49638C12.6665 8.51046 12.7792 8.52924 13.1499 8.65596Z" fill="#3D3D3D"/>
<path d="M11.4556 9.77766C10.2212 10.1062 9.47026 11.3453 9.78003 12.5374C10.0053 13.3963 10.6155 14.0065 11.4791 14.2317C13.0936 14.6542 14.6612 13.0865 14.2388 11.472C13.9103 10.2188 12.6571 9.45382 11.4556 9.77766Z" fill="#3D3D3D"/>
</svg>
