<svg width="30" height="31" viewBox="0 0 30 31" fill="none" xmlns="http://www.w3.org/2000/svg">
<path d="M13.5744 0.0615273C8.88097 0.548473 4.76835 3.10053 2.26909 7.07823C-1.27446 12.7104 -0.611514 20.1553 3.86486 25.06C6.34652 27.7763 9.44419 29.4014 13.1637 29.9294C13.856 30.0292 16.1617 30.0233 16.8892 29.9294C20.286 29.4601 23.325 27.9523 25.6366 25.5939C26.3993 24.8194 26.5577 24.6376 27.0622 23.9688C28.5641 21.9682 29.5439 19.5276 29.9252 16.8641C30.0249 16.1718 30.0249 13.8603 29.9252 13.168C29.6729 11.3903 29.2094 9.87669 28.4761 8.39239C27.6899 6.82009 26.8921 5.69953 25.6424 4.43816C23.325 2.09144 20.4268 0.630608 17.0945 0.137796C16.3729 0.0321941 14.2902 -0.01474 13.5744 0.0615273ZM18.5495 6.45048C20.2391 6.56195 21.2247 6.93155 22.1282 7.78811C23.0434 8.66226 23.4658 9.73589 23.5773 11.4783C23.6536 12.6224 23.6536 17.3803 23.5773 18.542C23.4658 20.302 23.0317 21.3874 22.093 22.2732C21.2189 23.1005 20.2098 23.4759 18.5495 23.5815C17.423 23.6519 12.6005 23.6519 11.4741 23.5815C9.78446 23.4701 8.79884 23.1005 7.89535 22.2439C6.98013 21.3698 6.55772 20.2961 6.44625 18.5537C6.36998 17.4155 6.37585 12.5226 6.44625 11.4431C6.56359 9.72415 6.986 8.65639 7.89535 7.78811C8.76364 6.96676 9.80206 6.55608 11.3098 6.45634C12.3013 6.38594 17.5345 6.38594 18.5495 6.45048Z" fill="white"/>
<path d="M12.8705 7.98171C11.1104 8.01691 10.823 8.03451 10.4299 8.14011C9.18025 8.48039 8.47037 9.18441 8.13596 10.434C8.03036 10.8271 8.01276 11.1205 7.97756 12.9509C7.95996 14.0832 7.95996 15.9488 7.97756 17.087C8.01276 18.9116 8.03036 19.2049 8.13596 19.598C8.47037 20.8476 9.18025 21.5575 10.4299 21.8919C10.823 21.9975 11.1163 22.0151 12.9467 22.0503C14.079 22.0679 15.9447 22.0679 17.0828 22.0503C18.9191 22.0151 19.2008 21.9975 19.6056 21.886C20.82 21.5634 21.5592 20.83 21.8877 19.6097C21.9934 19.199 22.011 18.9292 22.0462 17.0811C22.0638 15.9488 22.0638 14.0832 22.0462 12.945C22.011 11.1146 21.9934 10.8271 21.8877 10.434C21.5533 9.18441 20.8376 8.46866 19.5938 8.14011C19.1362 8.02278 19.0189 8.01691 15.7159 7.95824C15.2465 7.95238 13.9676 7.96411 12.8705 7.98171ZM19.981 9.44841C20.204 9.53055 20.468 9.78282 20.5618 10.0116C20.8493 10.6746 20.3389 11.4373 19.6173 11.4373C19.0658 11.4373 18.5906 10.9679 18.5906 10.4164C18.5906 9.70655 19.3181 9.19614 19.981 9.44841ZM16.4375 10.833C17.1474 11.0794 17.5404 11.3317 18.0978 11.8773C18.6375 12.4111 18.9719 12.9392 19.2184 13.6373C19.3709 14.0715 19.3826 14.1712 19.3826 15.016C19.3826 15.8608 19.3709 15.9606 19.2184 16.3947C18.9837 17.0694 18.6317 17.6209 18.1271 18.1313C17.6167 18.6358 17.0652 18.9878 16.3906 19.2225C15.9564 19.375 15.8567 19.3868 15.0119 19.3868C14.167 19.3868 14.0673 19.375 13.6332 19.2225C12.935 18.9761 12.407 18.6417 11.8731 18.1019C11.3275 17.5446 11.0811 17.1515 10.823 16.4416C10.647 15.943 10.6411 15.8902 10.6411 15.016C10.647 14.1888 10.6587 14.0656 10.8054 13.6373C11.1104 12.728 11.7616 11.8714 12.5478 11.3493C13.4043 10.7802 14.0204 10.61 15.1292 10.6335C15.8332 10.6511 15.974 10.6746 16.4375 10.833Z" fill="white"/>
<path d="M14.3195 12.2351C12.7765 12.6458 11.8378 14.1947 12.225 15.6848C12.5066 16.7584 13.2693 17.5211 14.3488 17.8027C16.367 18.3308 18.3265 16.3712 17.7985 14.3531C17.3878 12.7866 15.8214 11.8303 14.3195 12.2351Z" fill="white"/>
</svg>
