<svg width="27" height="26" viewBox="0 0 27 26" fill="none" xmlns="http://www.w3.org/2000/svg">
<path d="M2.73926 10.2041C2.73926 14.7803 6.57422 19.2812 12.6328 23.1484C12.8584 23.2881 13.1807 23.4385 13.4062 23.4385C13.6318 23.4385 13.9541 23.2881 14.1904 23.1484C20.2383 19.2812 24.0732 14.7803 24.0732 10.2041C24.0732 6.40137 21.4629 3.71582 17.9824 3.71582C15.9951 3.71582 14.3838 4.66113 13.4062 6.11133C12.4502 4.67188 10.8174 3.71582 8.83008 3.71582C5.34961 3.71582 2.73926 6.40137 2.73926 10.2041ZM4.46875 10.2041C4.46875 7.34668 6.31641 5.44531 8.80859 5.44531C10.8281 5.44531 11.9883 6.70215 12.6758 7.77637C12.9658 8.20605 13.1484 8.32422 13.4062 8.32422C13.6641 8.32422 13.8252 8.19531 14.1367 7.77637C14.8779 6.72363 15.9951 5.44531 18.0039 5.44531C20.4961 5.44531 22.3438 7.34668 22.3438 10.2041C22.3438 14.2002 18.1221 18.5078 13.6318 21.4941C13.5244 21.5693 13.4492 21.623 13.4062 21.623C13.3633 21.623 13.2881 21.5693 13.1914 21.4941C8.69043 18.5078 4.46875 14.2002 4.46875 10.2041Z" fill="#3D3D3D"/>
</svg>
