<svg width="26" height="21" viewBox="0 0 26 21" fill="none" xmlns="http://www.w3.org/2000/svg">
<path d="M3.6123 20.1377H22.1963C24.4521 20.1377 25.5693 19.0312 25.5693 16.8184V3.69141C25.5693 1.47852 24.4521 0.361328 22.1963 0.361328H3.6123C1.36719 0.361328 0.239258 1.47852 0.239258 3.69141V16.8184C0.239258 19.0312 1.36719 20.1377 3.6123 20.1377ZM8.5752 11.2002C7.95215 11.2002 7.51172 10.8672 7.51172 10.2764C7.51172 9.6748 7.93066 9.33105 8.5752 9.33105H17.2549C17.9102 9.33105 18.3076 9.6748 18.3076 10.2764C18.3076 10.8672 17.8779 11.2002 17.2549 11.2002H8.5752Z" fill="#3D3D3D"/>
</svg>
