<svg width="46" height="46" viewBox="0 0 46 46" fill="none" xmlns="http://www.w3.org/2000/svg">
<path d="M38.1084 0.117188L8.49414 0.117187C3.36719 0.117187 0.828125 2.65625 0.828125 7.68555L0.828125 37.4951C0.828125 42.5244 3.36719 45.0635 8.49414 45.0635L38.1084 45.0635C43.2109 45.0635 45.7744 42.5488 45.7744 37.4951L45.7744 7.68555C45.7744 2.63184 43.2109 0.117188 38.1084 0.117188ZM38.0596 4.04785C40.501 4.04785 41.8438 5.3418 41.8438 7.88086L41.8438 37.2998C41.8438 39.8389 40.501 41.1328 38.0596 41.1328L8.54297 41.1328C6.12598 41.1328 4.75879 39.8389 4.75879 37.2998L4.75879 7.88086C4.75879 5.3418 6.12598 4.04785 8.54297 4.04785L38.0596 4.04785ZM18.4551 10.542C17.6982 11.2988 17.7227 12.4707 18.4307 13.1543L28.4648 22.627L18.4307 32.0508C17.6982 32.7344 17.7227 33.9551 18.4795 34.6631C19.1631 35.3223 20.2861 35.2979 21.043 34.5898L31.1992 24.9951C32.5908 23.7256 32.5908 21.4795 31.1992 20.21L21.043 10.6152C20.3594 9.98047 19.0898 9.93164 18.4551 10.542Z" fill="white" style="mix-blend-mode:lighten"/>
</svg>
