<svg width="26" height="21" viewBox="0 0 26 21" fill="none" xmlns="http://www.w3.org/2000/svg">
<path d="M3.6123 20.1377H22.1963C24.4521 20.1377 25.5693 19.0312 25.5693 16.8184V3.69141C25.5693 1.47852 24.4521 0.361328 22.1963 0.361328H3.6123C1.36719 0.361328 0.239258 1.47852 0.239258 3.69141V16.8184C0.239258 19.0312 1.36719 20.1377 3.6123 20.1377ZM7.66211 10.2656C7.66211 9.70703 8.05957 9.32031 8.61816 9.32031H11.9805V5.95801C11.9805 5.39941 12.3564 5.00195 12.8936 5.00195C13.4629 5.00195 13.8496 5.39941 13.8496 5.95801V9.32031H17.2119C17.7705 9.32031 18.1572 9.70703 18.1572 10.2656C18.1572 10.8135 17.7705 11.1787 17.2119 11.1787H13.8496V14.5518C13.8496 15.1104 13.4629 15.4971 12.8936 15.4971C12.3564 15.4971 11.9805 15.0996 11.9805 14.5518V11.1787H8.61816C8.05957 11.1787 7.66211 10.8135 7.66211 10.2656Z" fill="#3D3D3D"/>
</svg>
