<svg width="14" height="21" viewBox="0 0 14 21" fill="none" xmlns="http://www.w3.org/2000/svg">
<path d="M2.49023 20.1162H11.5781C12.6631 20.1162 13.3291 19.5039 13.3291 18.3545V18.1396C13.3291 15.5508 10.5898 12.8008 9.08594 11.3076C8.40918 10.6309 8.35547 9.87891 9.08594 9.14844C10.5898 7.66602 13.3291 4.92676 13.3291 2.31641V2.13379C13.3291 0.984375 12.6631 0.361328 11.5781 0.361328H2.49023C1.40527 0.361328 0.739258 0.984375 0.739258 2.13379V2.31641C0.739258 4.92676 3.48926 7.66602 4.98242 9.14844C5.72363 9.87891 5.66992 10.6309 4.98242 11.3076C3.48926 12.8008 0.739258 15.5508 0.739258 18.1396V18.3545C0.739258 19.5039 1.40527 20.1162 2.49023 20.1162ZM7.77539 8.56836C7.23828 9.00879 6.83008 9.00879 6.29297 8.56836C5.4873 7.88086 3.19922 5.52832 2.50098 4.29297C2.31836 3.94922 2.41504 3.68066 2.74805 3.68066H11.3203C11.6533 3.68066 11.7607 3.94922 11.5674 4.29297C10.8691 5.52832 8.5918 7.88086 7.77539 8.56836Z" fill="#3D3D3D"/>
</svg>
