<svg width="21" height="12" viewBox="0 0 21 12" fill="none" xmlns="http://www.w3.org/2000/svg">
<path d="M10.6719 11.7852C10.9648 11.7852 11.2578 11.668 11.457 11.4453L20.5273 2.15234C20.7266 1.95312 20.8438 1.69531 20.8438 1.40234C20.8438 0.792969 20.3867 0.324219 19.7773 0.324219C19.4844 0.324219 19.2148 0.441406 19.0156 0.628906L10.6719 9.16016L2.31641 0.628906C2.12891 0.441406 1.85938 0.324219 1.55469 0.324219C0.945312 0.324219 0.488281 0.792969 0.488281 1.40234C0.488281 1.69531 0.605469 1.95312 0.804688 2.16406L9.875 11.4453C10.0977 11.668 10.3672 11.7852 10.6719 11.7852Z" fill="#3D3D3D"/>
</svg>
