<svg width="20" height="25" viewBox="0 0 20 25" fill="none" xmlns="http://www.w3.org/2000/svg">
<path d="M10.2676 16.166C10.7295 16.166 11.127 15.7793 11.127 15.3281V4.2959L11.0625 2.68457L11.7822 3.44727L13.415 5.1875C13.5654 5.35938 13.7803 5.44531 13.9951 5.44531C14.4355 5.44531 14.7793 5.12305 14.7793 4.68262C14.7793 4.45703 14.6826 4.28516 14.5215 4.12402L10.8906 0.62207C10.6758 0.407227 10.4932 0.332031 10.2676 0.332031C10.0527 0.332031 9.87012 0.407227 9.64453 0.62207L6.01367 4.12402C5.85254 4.28516 5.7666 4.45703 5.7666 4.68262C5.7666 5.12305 6.08887 5.44531 6.54004 5.44531C6.74414 5.44531 6.98047 5.35938 7.13086 5.1875L8.75293 3.44727L9.4834 2.68457L9.41895 4.2959V15.3281C9.41895 15.7793 9.80566 16.166 10.2676 16.166ZM4.1123 24.5771H16.4336C18.6787 24.5771 19.8066 23.46 19.8066 21.2471V10.5264C19.8066 8.31348 18.6787 7.19629 16.4336 7.19629H13.4365V8.92578H16.4014C17.4648 8.92578 18.0771 9.50586 18.0771 10.623V21.1504C18.0771 22.2676 17.4648 22.8477 16.4014 22.8477H4.13379C3.05957 22.8477 2.46875 22.2676 2.46875 21.1504V10.623C2.46875 9.50586 3.05957 8.92578 4.13379 8.92578H7.10938V7.19629H4.1123C1.86719 7.19629 0.739258 8.31348 0.739258 10.5264V21.2471C0.739258 23.46 1.86719 24.5771 4.1123 24.5771Z" fill="#3D3D3D"/>
</svg>
